<svg width="66" height="46" viewBox="0 0 66 46" fill="none" xmlns="http://www.w3.org/2000/svg">
<path d="M0 0H66V46H0V0Z" fill="#009CC2"/>
<path fill-rule="evenodd" clip-rule="evenodd" d="M42.1731 18.9721C42.1731 18.694 42.0665 18.4158 41.8746 18.2155L40.4247 16.7024C40.2328 16.5021 39.9663 16.3909 39.6997 16.3909C39.4332 16.3909 39.1667 16.5021 38.9747 16.7024L31.9811 24.0124L28.8467 20.73C28.6548 20.5298 28.3882 20.4185 28.1217 20.4185C27.8552 20.4185 27.5886 20.5298 27.3967 20.73L25.9468 22.2433C25.7549 22.4435 25.6483 22.7216 25.6483 22.9999C25.6483 23.2779 25.7549 23.556 25.9468 23.7564L29.8062 27.784L31.2561 29.2973C31.448 29.4975 31.7145 29.6088 31.9811 29.6088C32.2476 29.6088 32.5141 29.4975 32.706 29.2973L34.1559 27.784L41.8746 19.7287C42.0665 19.5285 42.1731 19.2504 42.1731 18.9721Z" fill="white"/>
</svg>
